# xmcd
#
# Track frame offsets: 
#        150
#        13713
#        26234
#        36367
#        48826
#        61609
#        72781
#        85533
#        96805
#        109298
#        124015
#        136962
#        151107
#        161797
#        174263
#        184799
#        195546
#        209017
#        221418
#        232608
#
# Disc length: 3219 seconds
#
# Revision: 0
# Processed by: cddbd v1.5.2PL0 Copyright (c) Steve Scherf et al.
# Submitted via: ExactAudioCopyFreeDBPlugin 1.0
#
DISCID=040c9114
DTITLE=Coasters - The Essential Recordings [CD1]
DYEAR=2014
DGENRE=Doo-Wop
TTITLE0=Riot In Cell Block #9
TTITLE1=Wrap It Up
TTITLE2=Loop De Loop Mambo
TTITLE3=Framed
TTITLE4=If Teardrops Were Kisses
TTITLE5=Whadaya Want
TTITLE6=One Kiss
TTITLE7=I Love Paris
TTITLE8=Smokey Joe's Café
TTITLE9=Down In Mexico
TTITLE10=One Kiss Led To Another
TTITLE11=Turtle Dovin'
TTITLE12=Brazil
TTITLE13=Searchin'
TTITLE14=Young Blood
TTITLE15=Idol With The Golden Head
TTITLE16=(When She Wants Good Lovin') My Baby Comes To Me
TTITLE17=Sweet Georgia Brown
TTITLE18=What Is The Secret Of Your Success
TTITLE19=Gee Golly
EXTD=
EXTT0=
EXTT1=
EXTT2=
EXTT3=
EXTT4=
EXTT5=
EXTT6=
EXTT7=
EXTT8=
EXTT9=
EXTT10=
EXTT11=
EXTT12=
EXTT13=
EXTT14=
EXTT15=
EXTT16=
EXTT17=
EXTT18=
EXTT19=
PLAYORDER=
